<svg width="128" height="128" viewBox="0 0 128 128" fill="none" xmlns="http://www.w3.org/2000/svg">
  <rect width="128" height="128" fill="#0ACF83"/>
  <path d="M17.5359 62.8038C16.5793 63.3561 16.2516 64.5793 16.8039 65.5359L35.8039 98.4449C36.3562 99.4015 37.5793 99.7292 38.5359 99.1769L45.4641 95.1769C46.4207 94.6246 46.7485 93.4015 46.1962 92.4449L33.1962 69.9282C32.6439 68.9716 32.9716 67.7484 33.9282 67.1962L56.4449 54.1962C57.4015 53.6439 57.7292 52.4207 57.1769 51.4641L53.1769 44.5359C52.6246 43.5793 51.4015 43.2516 50.4449 43.8038L17.5359 62.8038Z" fill="white"/>
  <path d="M82.8897 32C81.9332 32.5523 81.6054 33.7755 82.1577 34.732L95.1577 57.2487C95.71 58.2053 95.3822 59.4285 94.4256 59.9808L71.909 72.9808C70.9524 73.533 70.6246 74.7562 71.1769 75.7128L75.1769 82.641C75.7292 83.5976 76.9524 83.9254 77.909 83.3731L110.818 64.3731C111.775 63.8208 112.102 62.5976 111.55 61.641L92.55 28.732C91.9977 27.7755 90.7745 27.4477 89.8179 28L82.8897 32Z" fill="white"/>
</svg>
